<svg
	xmlns="http://www.w3.org/2000/svg"
	version="1.1"
	viewBox="0 0 486.3 445.26"
	style="fill: rgb(0, 0, 0);"
	role="img"
	aria-label="Autumn Circle Wreath."
>
	<defs>
		<clipPath id="__id14_smkgcj1r0q">
			<path d="m0 0h479v445.26h-479z" />
		</clipPath>
		<clipPath id="__id15_smkgcj1r0q">
			<path d="m36 25h450.3v397h-450.3z" />
		</clipPath>
	</defs>
	<g id="__id16_smkgcj1r0q">
		<g id="__id17_smkgcj1r0q"
			><path
				d="m455.96 196.27c-0.9-0.42-1.65 0.94-0.75 1.36 4.04 1.91 8.12-1.24 10.36-4.36 0.58-0.82-0.79-1.56-1.36-0.75-1.77 2.46-5.27 5.16-8.25 3.75zm3.32-9.93c0.98-0.18 0.52-1.66-0.45-1.49 0.33-0.06-0.53 0.03-0.68 0.02-0.63-0.01-1.28-0.13-1.88-0.35-2.53-0.94-3.7-3.48-4.32-5.94-0.25-0.97-1.73-0.51-1.49 0.45 1.04 4.06 4.15 8.13 8.82 7.31zm2.46-12.85c-1 0.07-0.95 1.62 0.05 1.55 4.1-0.29 8.11-2.7 9.7-6.55 0.38-0.92-0.97-1.67-1.36-0.75-1.38 3.35-4.8 5.49-8.39 5.75zm0.21-16.11c-0.13-0.98-1.68-0.94-1.56 0.05 0.72 5.66 0.4 11.57-0.23 17.2-1.48 13.01-5.65 25.58-12.65 36.68-0.54 0.85 0.83 1.59 1.36 0.75 7.06-11.2 11.31-23.93 12.8-37.07 0.65-5.78 1.01-11.81 0.28-17.61zm-138.95-108.2c-1.93 2.668-6.29 2.015-9.04 0.711-0.89-0.422-1.73 0.886-0.82 1.316 3.47 1.645 8.57 2.422 11.17-1.199 0.58-0.813-0.73-1.637-1.31-0.828zm-7.72-7.082c4.49-1.539 5.23-6.614 4.17-10.66-0.26-0.965-1.78-0.641-1.52 0.328 0.64 2.445 0.86 5.234-0.91 7.289-0.41 0.484-0.91 0.898-1.47 1.218-0.13 0.075-0.92 0.415-0.6 0.305-0.93 0.32-0.61 1.844 0.33 1.52zm-8.38-10.043c-3.27 1.519-7.29 1.304-10.13-0.961-0.78-0.621-1.61 0.699-0.83 1.316 3.26 2.598 7.94 2.758 11.66 1.028 0.91-0.422 0.2-1.805-0.7-1.383zm-7.99-13.989c2.17 5.422 5.41 10.532 8.78 15.266 7.67 10.77 17.56 19.848 29.17 26.215 0.87 0.476 1.7-0.832 0.82-1.317-11.5-6.304-21.25-15.277-28.84-25.945-3.29-4.617-6.43-9.637-8.55-14.922-0.37-0.929-1.75-0.215-1.38 0.703zm-169.2 367.93c2.4 2.25 1.19 6.5-0.45 9.05-0.54 0.83 0.65 1.83 1.19 0.99 2.08-3.23 3.5-8.18 0.25-11.24-0.74-0.68-1.72 0.52-0.99 1.2zm-8.01 6.75c-0.96-4.64-5.9-6.04-10.04-5.5-1 0.13-0.87 1.68 0.13 1.55 2.5-0.32 5.3-0.18 7.11 1.83 0.42 0.47 0.78 1.03 1.02 1.62 0.06 0.14 0.29 0.96 0.22 0.63 0.2 0.97 1.75 0.85 1.56-0.13zm-11.04 7.03c1.09 3.43 0.36 7.4-2.25 9.92-0.71 0.69 0.49 1.68 1.2 0.99 3-2.9 3.75-7.53 2.51-11.44-0.3-0.95-1.76-0.42-1.46 0.53zm-14.894 6.13c5.654-1.46 11.134-4.02 16.264-6.75 11.66-6.23 21.93-14.87 29.73-25.57 0.59-0.8-0.6-1.8-1.2-0.99-7.72 10.6-17.87 19.12-29.42 25.29-5 2.66-10.38 5.13-15.898 6.56-0.969 0.25-0.437 1.71 0.524 1.46zm67.064-19.04c2.06-2.56 6.38-1.68 9.06-0.24 0.86 0.47 1.77-0.79 0.89-1.27-3.38-1.82-8.43-2.86-11.22 0.62-0.62 0.78 0.65 1.67 1.27 0.89zm7.34 7.48c-4.56 1.3-5.57 6.33-4.72 10.43 0.21 0.97 1.74 0.73 1.53-0.25-0.51-2.48-0.58-5.28 1.29-7.23 0.43-0.46 0.96-0.85 1.53-1.14 0.13-0.07 0.94-0.37 0.61-0.28 0.96-0.27 0.72-1.81-0.24-1.53zm7.85 10.46c3.34-1.34 7.34-0.92 10.06 1.49 0.75 0.66 1.63-0.61 0.9-1.27-3.12-2.76-7.79-3.17-11.6-1.64-0.93 0.38-0.29 1.8 0.64 1.42zm7.25 14.39c-1.89-5.53-4.86-10.8-7.98-15.7-7.09-11.16-16.5-20.74-27.76-27.7-0.84-0.52-1.74 0.74-0.89 1.27 11.15 6.89 20.42 16.36 27.45 27.41 3.05 4.79 5.92 9.96 7.76 15.35 0.32 0.95 1.74 0.31 1.42-0.63zm-93.403-323.93c-4.211-0.082-6.695-5.164-7.324-9.008-0.203-1.246-2.195-1.18-1.988 0.086 0.793 4.859 3.687 10.797 9.402 10.91 1.277 0.023 1.191-1.965-0.09-1.988zm1.856-13.297c4.886 3.613 10.787 0.703 14.277-3.364 0.83-0.972-0.62-2.339-1.45-1.363-2.11 2.457-4.9 4.715-8.347 4.356-0.812-0.086-1.617-0.317-2.355-0.668-0.176-0.082-1.114-0.668-0.762-0.41-1.02-0.754-2.391 0.687-1.363 1.449zm4.488-16.149c-3.977-2.34-6.684-6.738-6.363-11.382 0.09-1.274-1.899-1.18-1.989 0.085-0.367 5.329 2.875 10.383 7.407 13.047 1.109 0.653 2.046-1.101 0.945-1.75zm8.929-18.609c-4.13 6.238-7.163 13.371-9.702 20.375-5.774 15.926-8.149 32.964-6.411 49.844 0.129 1.26 2.121 1.19 1.989-0.09-1.719-16.72 0.644-33.535 6.363-49.309 2.481-6.832 5.481-13.793 9.521-19.875 0.71-1.066-1.05-2.004-1.76-0.945zm-24.796 305.82c0.98 4.5-3.789 8.43-7.715 10.08-1.277 0.53-0.699 2.63 0.594 2.09 4.965-2.08 10.543-6.66 9.211-12.76-0.297-1.37-2.391-0.77-2.09 0.59zm-14.606 1.41c2.598-6.11-1.992-11.64-7.203-14.32-1.246-0.64-2.328 1.25-1.082 1.89 3.152 1.62 6.258 4.01 6.75 7.76 0.113 0.89 0.074 1.8-0.109 2.68-0.043 0.21-0.43 1.35-0.242 0.91-0.543 1.28 1.339 2.37 1.886 1.08zm-18.308-0.67c-1.473 4.82-5.465 8.82-10.481 9.66-1.379 0.23-0.773 2.32 0.594 2.09 5.758-0.97 10.309-5.7 11.988-11.19 0.41-1.34-1.691-1.9-2.101-0.56zm-22.051-4.77c7.683 2.82 16.035 4.22 24.125 5.14 18.398 2.09 37.113 0.29 54.606-5.84 1.32-0.46 0.73-2.56-0.59-2.09-17.336 6.07-35.813 7.83-54.036 5.76-7.89-0.9-16.054-2.33-23.543-5.07-1.316-0.48-1.867 1.62-0.562 2.1zm411.18-82.13c5.42-0.56 9.4 5.56 10.82 10.4 0.46 1.56 3 1.16 2.53-0.43-1.78-6.11-6.43-13.27-13.77-12.51-1.65 0.17-1.22 2.71 0.42 2.54zm-0.27 17.34c-6.84-3.86-13.95 0.8-17.78 6.57-0.92 1.38 1.15 2.9 2.07 1.52 2.32-3.49 5.54-6.82 10.02-6.9 1.05-0.02 2.12 0.15 3.12 0.48 0.24 0.08 1.53 0.68 1.05 0.41 1.42 0.8 2.95-1.27 1.52-2.08zm-3.22 21.42c5.48 2.37 9.64 7.59 9.96 13.59 0.09 1.65 2.63 1.22 2.54-0.42-0.37-6.89-5.32-12.87-11.56-15.57-1.52-0.66-2.45 1.74-0.94 2.4zm-8.52 25.27c-0.73 1.47-3.13 0.55-2.39-0.93 4.22-8.44 6.97-17.84 9.07-26.99 4.84-21.13 5.22-43.07 0.38-64.24-0.37-1.62 2.17-2.03 2.53-0.42 4.9 21.36 4.54 43.59-0.35 64.92-2.15 9.38-4.91 19.01-9.24 27.66"
				style="fill: rgb(207, 135, 34);"
			/></g
		>
		<g clip-path="url(#__id14_smkgcj1r0q)" id="__id18_smkgcj1r0q">
			<path
				d="m312.31 402.34c-0.02 0.03-0.04 0.05-0.05 0.08-7.91 15.59-31.19 16.54-36.67 34.01-0.7 2.25-1.93 6.75 0.69 8.21 2.65 1.48 7.33-0.05 9.96-0.91 7.64-2.48 14.25-8 18.58-14.7 5.04-7.8 7.36-17.11 8.75-26.19 0.11-0.24 0.05-0.45-0.08-0.59-0.27-0.36-0.94-0.35-1.18 0.09zm-81.01-48.58c-0.95 1.3-1.1 3.24-1.28 4.77-0.25 2.23-0.25 4.48-0.05 6.71 0.81 8.79 4.97 17.24 10.92 23.69 7.38 8 17.38 13.22 27.32 17.3 0.21 0.15 0.42 0.14 0.6 0.04 0.41-0.18 0.56-0.84 0.17-1.17-0.02-0.02-0.03-0.03-0.04-0.05-15.43-13.11-10.05-40.09-28.74-50.5-2.3-1.28-6.84-3.6-8.9-0.79zm-169.22-175.24c-0.012-0.02-0.027-0.05-0.043-0.07-10.129-14.25-0.148-35.31-13.062-48.28-1.661-1.67-5.075-4.85-7.586-3.21-2.547 1.66-3.36 6.51-3.829 9.24-1.359 7.91 0.454 16.34 4.379 23.29 4.563 8.08 11.723 14.46 19.114 19.92 0.164 0.21 0.371 0.26 0.566 0.21 0.438-0.08 0.738-0.67 0.461-1.1zm80.678-49.12c-0.7-1.45-2.36-2.48-3.63-3.35-1.85-1.26-3.84-2.31-5.92-3.16-8.15-3.38-17.57-3.62-26.05-1.35-10.5 2.81-19.777 9.23-28.012 16.14-0.23 0.11-0.324 0.3-0.32 0.51-0.023 0.45 0.484 0.88 0.965 0.69 0.019 0 0.039 0 0.059-0.01 18.785-7.56 40.168 9.75 58.068-1.96 2.21-1.44 6.37-4.37 4.84-7.51zm273.87 17.26c0.2 0.01 0.39-0.08 0.51-0.31 6.18-6.81 11.95-14.47 14.83-23.3 2.48-7.59 2.6-16.2-0.29-23.691-0.99-2.586-2.74-7.183-5.57-8.308-2.78-1.11-5.5 2.679-6.8 4.637-10.11 15.262 3.81 33.942-3.32 49.902l-0.03 0.09c-0.19 0.47 0.23 0.99 0.67 0.98zm-83.21-26.87c19.85 7.95 37.42-13.22 57.32-9.5h0.06c0.51 0.09 0.93-0.43 0.81-0.87-0.03-0.2-0.16-0.37-0.41-0.44-9.43-5.15-19.79-9.625-30.65-10.316-8.75-0.559-17.94 1.536-25.27 6.446-1.86 1.24-3.61 2.67-5.18 4.27-1.08 1.09-2.49 2.44-2.9 3.99-0.88 3.38 3.77 5.44 6.22 6.42zm108.88 54.26c-1.37 6.04-2.35 12.81 0.34 18.63 2.01 4.32 5.61 8.7 10.33 10.09 0.2 0.06 0.38 0.04 0.52-0.03 13.08-2.49 23.16-13.49 24.85-26.65 0.85-6.68-0.28-13.45-3.22-19.49-3.39-6.96-8.77-12.7-13.13-19.04-0.27-0.38-0.88-0.53-1.22-0.13-8.96 10.55-15.39 23.11-18.47 36.62zm-152.03-174c-0.5-0.1836-0.97 0.23828-1.01 0.70704-0.74 7.6563-2.66 15.281-2.25 23.016 0.35 6.714 2.65 13.183 6.63 18.605 7.86 10.691 22.01 15.426 34.65 11.262 0.16-0.008 0.33-0.071 0.48-0.223 3.44-3.508 4.47-9.078 4.13-13.832-0.46-6.398-4.6-11.848-8.73-16.461-9.24-10.32-20.96-18.195-33.9-23.074zm-213.48 412.12c-0.246 0.47 0.117 0.99 0.574 1.09 7.5 1.71 14.813 4.6 22.536 5.18 6.705 0.51 13.415-0.94 19.305-4.19 11.61-6.43 18.12-19.86 15.6-32.93 0.02-0.16-0.02-0.33-0.16-0.5-3.03-3.87-8.43-5.6-13.18-5.87-6.41-0.36-12.34 3.05-17.44 6.55-11.426 7.84-20.739 18.45-27.235 30.67zm116.16 25.47c0.49 0.22 0.98-0.18 1.05-0.65 1.13-7.61 3.45-15.12 3.45-22.87-0.01-6.72-1.96-13.3-5.66-18.92-7.29-11.09-21.17-16.56-34.02-13.05-0.16-0.01-0.32 0.05-0.48 0.19-3.63 3.32-4.95 8.84-4.85 13.6 0.13 6.42 3.97 12.08 7.86 16.9 8.69 10.78 19.98 19.26 32.65 24.8zm-73.09-412.66c-0.16-0.652-0.95-0.839-1.48-0.546-8.61 4.793-18.05 8.316-25.907 14.378-6.825 5.262-11.977 12.391-14.793 20.54-5.559 16.07-0.25 34.441 13.351 44.738 0.121 0.17 0.309 0.3 0.574 0.34 6.211 1.09 12.835-1.89 17.595-5.707 6.42-5.145 9.15-13.477 11.01-21.188 4.16-17.262 3.93-35.347-0.35-52.555zm-119.34 316.16c-0.65625 0.33-0.65234 1.22-0.20703 1.7 7.2852 7.94 13.426 17.08 21.868 23.89 7.328 5.92 16.215 9.59 25.59 10.51 18.496 1.83 36.675-8.48 44.171-25.56 0.145-0.17 0.231-0.4 0.211-0.7-0.425-6.87-5.265-13.16-10.539-17.25-7.097-5.51-16.648-6.3-25.316-6.32-19.406-0.03-38.574 4.8-55.777 13.73zm404.5-47.06c1.17-10.18 3.36-21.3 10.77-28.91 5.5-5.65 13.53-10.51 21.66-10.1 0.35 0.02 0.61 0.15 0.8 0.34 19.06 11.07 28.77 33.79 24.18 55.28-2.33 10.89-7.81 20.84-15.73 28.67-9.12 9.01-20.67 15.02-30.96 22.53-0.63 0.46-1.67 0.34-1.98-0.47-8.21-21.39-11.35-44.55-8.74-67.34"
				style="fill: rgb(200, 81, 3);"
			/>
		</g>
		<g id="__id19_smkgcj1r0q"
			><path
				d="m309.31 365.47c-0.72 2.35 1.47 5.92 2.64 7.79 3.32 5.34 8.71 9.33 14.6 11.42 6.93 2.46 14.52 2.52 21.77 1.93 0.39-0.03 0.56-0.32 0.55-0.62 0.07-0.3-0.05-0.61-0.44-0.7-13.5-3.33-18.72-21.56-33.47-21.95-1.82-0.04-4.99-0.03-5.65 2.13zm29.24 25.68c-0.02 0.01-0.04 0.02-0.07 0.03 0 0-0.01 0-0.01 0.01-0.23 0.09-0.4 0.29-0.38 0.58-1.57 13.82-18.9 21.29-17.34 36.02 0.18 1.77 0.67 4.95 2.92 5.24 2.43 0.31 5.46-2.15 7.22-3.58 4.81-3.93 8.04-9.68 9.4-15.69 1.64-7.24 0.71-14.88-0.82-22.05-0.03-0.44-0.45-0.64-0.81-0.58h-0.03c-0.02 0.01-0.05 0.01-0.08 0.02zm-62.21-25.22c-1.33 2.82 0.77 7.59 1.93 10.19 3.3 7.45 9.55 13.48 16.78 17.13 8.1 4.09 17.38 5.49 26.35 6.03 0.33 0.07 0.58-0.12 0.71-0.38 0-0.01 0-0.02 0.01-0.03 0.01-0.02 0.02-0.05 0.02-0.07 0.01-0.02 0.02-0.04 0.02-0.07 0-0.01 0-0.03 0.01-0.04 0-0.03 0.01-0.07 0.01-0.1v-0.02c0-0.28-0.15-0.56-0.48-0.64-16.26-6.47-19.38-29.49-37.29-33.38-2.24-0.48-6.81-1.26-8.07 1.38zm2.48 39.75c-16.16 12.23-41.28 1.18-55.53 17.16-1.85 2.07-5.19 6.19-2.43 8.79 2.58 2.42 7.57 3.15 10.94 3.55 8.54 1 17.43-1.14 24.86-5.39 9.56-5.45 16.94-14.2 23.14-23.13 0.17-0.17 0.21-0.39 0.15-0.58 0-0.01 0-0.02-0.01-0.03 0-0.01-0.01-0.03-0.01-0.04-0.16-0.41-0.73-0.66-1.11-0.33zm-103.44-37.75c-0.45 1.8 0.41 3.87 1.01 5.54 0.93 2.55 2.17 4.97 3.64 7.25 5.59 8.68 14.52 15.13 24.25 18.41 11.2 3.79 23.4 3.88 35.07 2.92 0.39-0.03 0.56-0.32 0.55-0.62 0.07-0.31-0.04-0.62-0.44-0.71-21.97-5.17-30-33.37-53.15-36.01-3.09-0.35-9.93-0.75-10.93 3.22zm-79.263-174.91c-1.742-1.73-5.922-1.45-8.121-1.29-6.273 0.47-12.312 3.37-16.902 7.62-5.399 4.99-8.977 11.69-11.832 18.37-0.157 0.37 0.019 0.65 0.293 0.78 0.234 0.2 0.566 0.24 0.828-0.06 9.222-10.42 27.793-6.55 34.992-19.43 0.887-1.59 2.344-4.4 0.742-5.99zm-36.336 13.94c0.004-0.02 0.008-0.04 0.012-0.07v-0.02c0.019-0.24-0.078-0.48-0.34-0.61-11.512-7.81-10.055-26.63-23.816-32.1-1.664-0.66-4.707-1.7-6.004 0.15-1.406 2.01-0.641 5.83-0.188 8.06 1.243 6.08 4.825 11.62 9.52 15.62 5.644 4.81 12.844 7.55 19.902 9.53 0.399 0.18 0.774-0.1 0.891-0.46l0.008-0.02c0.004-0.02 0.011-0.05 0.015-0.08zm51.259-43.34c-1.87-2.5-7.07-2.85-9.91-3.04-8.134-0.53-16.38 2.19-22.97 6.89-7.387 5.28-12.945 12.83-17.594 20.53-0.214 0.26-0.168 0.57 0.008 0.8 0.008 0.01 0.012 0.02 0.02 0.02 0.015 0.02 0.035 0.04 0.054 0.06 0.012 0.01 0.028 0.03 0.047 0.05 0.012 0 0.024 0.02 0.039 0.02 0.024 0.02 0.047 0.04 0.075 0.05 0.007 0.01 0.011 0.01 0.019 0.01 0.254 0.14 0.57 0.14 0.793-0.12 13.293-11.39 35.117-3.44 46.889-17.5 1.47-1.75 4.29-5.43 2.53-7.77zm-36.345-16.3c-3.308-19.99 18.157-37.09 10.641-57.132-0.981-2.606-3.074-7.473-6.66-6.239-3.344 1.153-6.305 5.231-8.227 8.035-4.859 7.094-7.094 15.966-6.793 24.516 0.383 11 4.699 21.59 9.719 31.23 0.074 0.24 0.246 0.37 0.449 0.41 0.008 0 0.02 0 0.028 0.01h0.046c0.434 0.06 0.918-0.33 0.797-0.83zm81.525-74.015c-1.39-1.243-3.62-1.442-5.37-1.676-2.69-0.363-5.41-0.399-8.11-0.156-10.29 0.914-20.15 5.82-27.58 12.906-8.56 8.156-14.32 18.921-18.89 29.691-0.157 0.36 0.019 0.65 0.296 0.78 0.231 0.2 0.563 0.24 0.825-0.06 14.799-17.048 43.499-11.04 56.599-30.31 1.75-2.57 5.29-8.445 2.23-11.175zm231.12 98.995c9.6 11.22 27.04 3.78 38.13 12.18 0.32 0.24 0.64 0.13 0.83-0.1 0.24-0.19 0.36-0.5 0.13-0.83-4.11-5.99-8.94-11.85-15.21-15.68-5.34-3.26-11.83-4.93-18.07-4.15-2.19 0.27-6.34 0.82-7.71 2.85-1.26 1.88 0.72 4.36 1.9 5.73zm36.5 0.88c0 0.01 0.01 0.02 0.01 0.02 0.19 0.33 0.61 0.52 0.96 0.27 6.54-3.32 13.05-7.42 17.64-13.25 3.82-4.84 6.25-10.98 6.27-17.19 0.01-2.27 0-6.17-1.77-7.86-1.64-1.56-4.41 0.06-5.91 1.03-12.42 8.07-7.3 26.24-17.05 36.16-0.23 0.17-0.28 0.43-0.21 0.66v0.02c0.01 0.03 0.02 0.05 0.03 0.07 0.01 0.03 0.02 0.05 0.03 0.07zm-54.8-25.36c14.3 11.46 34.14-0.62 49.41 7.94 0.27 0.2 0.58 0.14 0.8-0.05 0.01 0 0.02 0 0.02-0.01 0.02-0.02 0.04-0.04 0.07-0.06 0-0.02 0.02-0.03 0.03-0.04s0.02-0.03 0.03-0.05c0.02-0.02 0.03-0.04 0.05-0.07 0-0.01 0-0.02 0.01-0.03 0.13-0.25 0.11-0.57-0.15-0.78-6.07-6.63-13.01-12.95-21.29-16.67-7.38-3.32-16-4.36-23.87-2.24-2.75 0.74-7.77 2.11-9.12 4.92-1.27 2.64 2.22 5.7 4.01 7.14zm28.42-30.25c-0.02 0.5 0.53 0.79 0.95 0.65 0.01 0 0.03-0.01 0.04-0.01 0.01-0.01 0.02-0.01 0.03-0.01 0.18-0.08 0.33-0.24 0.36-0.49 3.02-10.44 5.17-21.683 3.39-32.538-1.39-8.445-5.33-16.699-11.48-22.703-2.44-2.371-6.15-5.785-9.65-6.258-3.76-0.508-4.86 4.676-5.3 7.426-3.43 21.121 20.97 33.672 21.66 53.933zm-94.48-56.554c1.11-1.489 3.26-2.125 4.93-2.7 2.57-0.882 5.23-1.453 7.93-1.746 10.26-1.129 20.89 1.746 29.57 7.235 10 6.312 17.76 15.73 24.36 25.394 0.23 0.328 0.11 0.645-0.13 0.824-0.19 0.243-0.51 0.348-0.83 0.106-17.86-13.809-44.81-2.274-61.45-18.594-2.22-2.176-6.84-7.238-4.38-10.519"
				style="fill: rgb(79, 30, 12);"
			/></g
		>
		<g id="__id20_smkgcj1r0q"
			><path
				d="m209.56 392.78c20.76 9.93 43.49 14.85 66.21 14.71-7.1 5.55-14.78 10.71-23.07 14.19-1.64 0.69-0.46 3.18 1.18 2.5 9.49-3.98 18.26-10.18 26.23-16.62 0.07-0.05 0.12-0.11 0.18-0.17 10.32-0.37 20.62-1.79 30.71-4.27-2.51 7.87-6.41 17.08-13.73 21.48-1.5 0.9-0.34 3.41 1.18 2.49 8.21-4.93 12.58-14.82 15.33-23.63 0.12-0.39 0.07-0.74-0.08-1.03 5.85-1.55 11.63-3.46 17.29-5.73 1.99-0.8 3.96-1.65 5.91-2.53 1.13 3.05 0.24 7.11-0.49 10.18-0.73 3.06-1.86 6.02-3.31 8.8-0.81 1.55 1.45 3.14 2.28 1.56 1.74-3.34 3.07-6.82 3.87-10.51 0.78-3.59 1.46-7.65 0.16-11.19 8.76-4.17 17.11-9.19 24.94-14.95 1.43-1.05-0.37-3.15-1.8-2.1-4.95 3.65-10.11 6.96-15.44 9.93-0.1-0.01-0.2-0.02-0.3-0.01-1.23 0.05-2.9-0.83-4.09-1.18-2.62-0.79-5.17-1.81-7.63-3.01-4.97-2.42-9.59-5.48-14.2-8.53-1.48-0.98-3.04 1.29-1.55 2.28 5.01 3.32 10.06 6.63 15.52 9.18 2.56 1.2 5.18 2.14 7.88 2.95 0.26 0.07 0.53 0.16 0.8 0.25-7.45 3.89-15.2 7.13-23.16 9.71-0.14-0.08-0.3-0.14-0.49-0.17-9.73-1.41-18.68-6.59-25.49-13.59-1.23-1.27-3.33 0.52-2.09 1.8 6.23 6.4 14.05 11.31 22.69 13.58-14.97 4.23-30.58 6.13-46.18 5.55-0.01-0.01-0.02-0.02-0.03-0.02-9.68-5.16-16.43-15.11-21.45-24.54-0.83-1.57-3.33-0.4-2.5 1.17 4.49 8.44 10.32 17.31 18.27 23.06-7.22-0.55-14.43-1.64-21.56-3.29-10.71-2.48-21.13-6.15-31.05-10.9-1.61-0.77-2.53 1.84-0.94 2.6zm-91.23-300.77c-18.451 13.758-33.377 31.598-43.814 51.778-1.606-8.87-2.61-18.08-1.836-27.03 0.152-1.77-2.606-1.88-2.758-0.12-0.887 10.25 0.519 20.9 2.508 30.95 0.019 0.09 0.043 0.16 0.07 0.23-4.473 9.32-8.004 19.1-10.496 29.18-5.809-5.88-12.141-13.61-12.633-22.13-0.101-1.76-2.859-1.89-2.758-0.12 0.551 9.55 7.274 18.03 13.793 24.55 0.289 0.3 0.625 0.41 0.953 0.42-1.347 5.9-2.347 11.9-2.968 17.97-0.219 2.13-0.383 4.27-0.508 6.41-3.223-0.42-6.41-3.1-8.785-5.17-2.368-2.07-4.465-4.44-6.25-7.02-1-1.45-3.453-0.18-2.442 1.29 2.145 3.09 4.606 5.89 7.5 8.31 2.824 2.36 6.098 4.86 9.84 5.35-0.383 9.7 0.176 19.43 1.633 29.03 0.266 1.76 2.957 1.13 2.691-0.62-0.922-6.07-1.453-12.18-1.605-18.29 0.058-0.07 0.109-0.16 0.152-0.25 0.524-1.12 2.074-2.18 2.945-3.07 1.918-1.96 4.004-3.74 6.211-5.36 4.45-3.28 9.317-5.94 14.149-8.6 1.555-0.86 0.273-3.3-1.289-2.44-5.27 2.9-10.551 5.83-15.352 9.47-2.25 1.71-4.297 3.59-6.269 5.61-0.192 0.2-0.395 0.39-0.594 0.59 0.02-8.4 0.754-16.77 2.176-25.02 0.133-0.09 0.258-0.2 0.371-0.35 5.777-7.96 14.523-13.47 23.887-16.25 1.691-0.5 1.089-3.2-0.618-2.69-8.566 2.54-16.554 7.18-22.582 13.77 3.215-15.22 8.797-29.92 16.567-43.46 0.011 0 0.023 0 0.035-0.01 9.066-6.18 21.016-7.53 31.696-7.58 1.77-0.01 1.9-2.77 0.12-2.76-9.56 0.04-20.125 1.08-28.91 5.45 3.856-6.14 8.172-12.01 12.942-17.55 7.178-8.34 15.278-15.86 24.098-22.433 1.42-1.063-0.46-3.09-1.87-2.035zm225.47-20.102c20.8 9.863 38.94 24.414 53.14 42.15-0.17-9.01-0.99-18.232-3.51-26.857-0.5-1.707 2.18-2.359 2.68-0.656 2.89 9.875 3.6 20.593 3.62 30.843 0 0.08-0.01 0.16-0.02 0.23 6.22 8.26 11.6 17.15 16.03 26.55 4.54-6.9 9.23-15.74 8.03-24.19-0.24-1.74 2.43-2.41 2.68-0.66 1.34 9.48-3.58 19.11-8.69 26.79-0.23 0.35-0.53 0.53-0.85 0.59 2.48 5.53 4.64 11.21 6.44 17.04 0.63 2.05 1.21 4.12 1.76 6.19 3.07-1.05 5.67-4.3 7.59-6.8 1.92-2.49 3.51-5.23 4.75-8.11 0.7-1.61 3.35-0.85 2.65 0.78-1.49 3.46-3.36 6.68-5.72 9.63-2.31 2.87-5.02 5.96-8.6 7.18 2.29 9.43 3.65 19.08 4.11 28.78 0.08 1.78-2.68 1.7-2.76-0.07-0.29-6.14-0.97-12.23-2.02-18.25-0.07-0.07-0.14-0.14-0.2-0.23-0.73-0.98-2.46-1.72-3.5-2.43-2.26-1.53-4.66-2.87-7.14-4.03-5-2.34-10.3-3.99-15.56-5.65-1.69-0.53-0.92-3.18 0.78-2.64 5.74 1.8 11.49 3.64 16.92 6.27 2.54 1.23 4.92 2.67 7.25 4.26 0.23 0.16 0.46 0.31 0.7 0.46-1.68-8.23-4.04-16.29-7.06-24.1-0.14-0.06-0.29-0.14-0.43-0.27-7.23-6.67-16.89-10.35-26.61-11.24-1.76-0.15-1.7-2.92 0.08-2.76 8.89 0.81 17.64 3.79 24.84 9.07-6.14-14.29-14.5-27.61-24.79-39.35-0.01-0.01-0.02-0.01-0.03-0.02-10.11-4.27-22.09-3.25-32.57-1.2-1.74 0.34-2.41-2.33-0.66-2.67 9.38-1.84 19.95-2.9 29.42-0.34-4.99-5.27-10.38-10.177-16.14-14.673-8.68-6.765-18.09-12.543-28.03-17.257-1.61-0.762-0.17-3.114 1.42-2.36"
				style="fill: rgb(207, 135, 34);"
			/></g
		>
		<g id="__id21_smkgcj1r0q"
			><path
				d="m214.45 72.398c6.59-4.679 13.52-8.867 20.78-12.382-3.94 4.82-7.44 9.988-10.47 15.457-0.94 1.695 1.75 3.05 2.69 1.355 2.35-4.266 5.02-8.32 7.96-12.176 1.42 6.106 2.34 12.293 2.78 18.555 0.13 1.934 3.13 1.789 3-0.145-0.5-7.226-1.64-14.374-3.41-21.398 1.24-1.508 2.53-2.98 3.86-4.418 0.06-0.058 0.09-0.117 0.13-0.176 0.24-0.097 0.47-0.191 0.7-0.289 0.46 0.024 0.84-0.156 1.1-0.441 0.98-0.391 1.97-0.77 2.96-1.137 17.02-6.242 35.39-8.527 53.38-6.141-3.57 2.145-6.58 5.293-9.39 8.282-3.79 4.023-7.14 8.41-10.15 13.039-5.6 2.062-10.92 4.715-15.93 7.965-1.63 1.054-0.01 3.597 1.61 2.543 4.05-2.625 8.29-4.848 12.74-6.668-1.72 3.722-3.42 7.441-5.13 11.164-0.81 1.754 1.87 3.121 2.68 1.359 1.75-3.812 3.51-7.625 5.26-11.437 2.62 4.117 4.88 8.425 6.75 12.945 0.74 1.781 3.61 0.887 2.88-0.902-2.23-5.364-4.94-10.469-8.16-15.293 0.06-0.164 0.09-0.329 0.09-0.485 2.67-4.074 5.64-7.929 8.94-11.512 3.3-3.582 6.99-7.746 11.61-9.578 0.39-0.152 0.65-0.41 0.8-0.711 15.49 2.739 30.24 8.782 43.39 17.434 1.62 1.063 2.96-1.633 1.36-2.687-8.15-5.364-16.9-9.735-26.1-12.965-15.04-5.274-31.11-7.367-46.97-6.039-6.71-5.895-12.94-12.282-18.66-19.145 0.05-3.527 0.33-7.031 0.86-10.519 0.29-1.911-2.66-2.543-2.95-0.625-0.4 2.648-0.66 5.304-0.8 7.972-2.18-1.976-4.35-3.957-6.53-5.937-1.44-1.301-3.46 0.926-2.03 2.23 1.69 1.535 3.38 3.07 5.08 4.61-4.8-0.664-9.59-1.325-14.39-1.985-1.91-0.262-2.54 2.68-0.62 2.945 6.18 0.852 12.36 1.704 18.53 2.555 5.39 6.52 11.21 12.637 17.46 18.317-0.68 0.086-1.37 0.164-2.06 0.257-9.6 1.348-18.9 3.93-27.82 7.5-2.59-0.527-5.13-1.218-7.61-2.074-0.28-0.32-0.69-0.508-1.19-0.418-4.63-1.703-9.05-3.972-13.14-6.804-1.57-1.086-3.61 1.128-2.02 2.23 3.49 2.414 7.17 4.465 11.02 6.133-3.28 1.258-6.56 2.515-9.84 3.773-1.8 0.692-0.91 3.567 0.9 2.871 4.37-1.675 8.73-3.347 13.09-5.019 1.35 0.472 2.72 0.906 4.1 1.285-8.67 3.871-16.95 8.664-24.73 14.187-1.58 1.122 0.04 3.665 1.61 2.543zm119.37 306.21c9.31-2.1 18.41-5.07 27.08-8.94-0.64 1.29-1.23 2.59-1.78 3.92-4.16 2.12-8.32 4.25-12.48 6.38-1.72 0.89-0.18 3.48 1.54 2.59 3.12-1.6 6.25-3.2 9.37-4.8-1.32 3.97-2.25 8.08-2.79 12.3-0.24 1.92 2.77 1.88 3.01-0.02 0.63-4.94 1.89-9.74 3.71-14.33 0.4-0.31 0.54-0.74 0.48-1.16 1.02-2.42 2.21-4.77 3.54-7.05 8.61-4.25 16.75-9.46 24.16-15.7 0.53-0.45 1.05-0.91 1.57-1.37 0.05 8.46 0.72 16.87 1.98 25.23-3.5 5.17-6.99 10.34-10.48 15.51-1.09 1.61 1.53 3.1 2.61 1.5l8.13-12.03c0.01 2.28 0.03 4.57 0.04 6.85 0.01 1.94 3.03 1.92 3.01-0.02-0.02-2.94-0.04-5.88-0.05-8.83 2.08 1.68 4.23 3.26 6.47 4.73 1.62 1.07 3.11-1.55 1.5-2.61-2.95-1.94-5.74-4.06-8.4-6.38-1.3-8.84-1.88-17.75-1.8-26.68 11.58-10.92 20.76-24.28 26.87-38.99 3.74-9.01 6.33-18.44 7.78-28.09 0.29-1.9-2.62-2.69-2.91-0.78-2.34 15.56-7.69 30.58-16 43.94-0.32-0.09-0.68-0.07-1.06 0.11-4.44 2.22-10.01 2.19-14.88 2.25-4.87 0.07-9.73-0.29-14.54-1.03-0.11-0.1-0.26-0.18-0.42-0.25-1.44-5.63-3.43-11.05-5.94-16.29-0.84-1.74-3.42-0.2-2.59 1.54 2.11 4.41 3.81 8.98 5.13 13.68-4.01-1.25-8.02-2.49-12.02-3.73-1.86-0.58-2.63 2.33-0.79 2.9 3.92 1.22 7.83 2.43 11.74 3.64-4.33 2.1-8.81 3.77-13.47 5.03-1.87 0.51-1.05 3.41 0.82 2.9 5.76-1.56 11.29-3.75 16.56-6.54 5.46 0.85 10.96 1.28 16.49 1.15 4.1-0.1 8.45-0.24 12.43-1.46-10.24 14.98-24.2 27.13-40.21 35.63-0.94 0.5-1.88 0.98-2.82 1.44-0.39 0.01-0.77 0.17-1.07 0.53-0.22 0.11-0.45 0.22-0.68 0.33-0.07-0.01-0.14-0.02-0.21-0.02-1.97 0.03-3.92 0.01-5.88-0.07-4.04-6.01-8.6-11.64-13.64-16.84-1.36-1.39-3.47 0.76-2.12 2.15 4.37 4.5 8.36 9.32 11.96 14.45-4.84-0.38-9.63-1.11-14.38-2.2-1.89-0.43-2.68 2.47-0.79 2.91 6.1 1.4 12.28 2.24 18.5 2.52-7.46 3.06-15.21 5.42-23.09 7.2-1.89 0.43-1.07 3.33 0.81 2.9zm-272.59-168.89c-1.8 7.88-3.015 15.89-3.484 23.94 2.942-5.49 6.371-10.7 10.266-15.59 1.207-1.52 3.488 0.45 2.285 1.96-3.039 3.81-5.766 7.83-8.203 12.02 6.183-1.03 12.254-2.54 18.203-4.54 1.84-0.62 2.859 2.22 1.019 2.83-6.867 2.31-13.91 3.99-21.078 5.04-0.914 1.73-1.785 3.48-2.601 5.26-0.032 0.07-0.071 0.13-0.11 0.19v0.76c0.2 0.41 0.176 0.83 0.016 1.18 0.012 1.06 0.039 2.11 0.082 3.17 0.742 18.11 5.664 35.95 14.758 51.67 0.617-4.12 2.371-8.11 4.058-11.85 2.266-5.04 5.032-9.82 8.157-14.37-0.235-5.96 0.175-11.89 1.261-17.76 0.352-1.91 3.317-1.39 2.965 0.51-0.875 4.74-1.301 9.52-1.285 14.32 2.785-3.01 5.566-6.01 8.352-9.01 1.312-1.42 3.601 0.53 2.281 1.96-2.848 3.08-5.703 6.15-8.551 9.23 4.805 0.84 9.652 1.29 14.539 1.29 1.93 0 2.21 3 0.27 3-5.805 0-11.559-0.55-17.246-1.68-0.133 0.11-0.27 0.21-0.414 0.27-2.743 4.02-5.165 8.24-7.215 12.66-2.047 4.42-4.481 9.43-4.403 14.39 0.008 0.42-0.132 0.76-0.351 1.02 8.461 13.26 19.687 24.57 32.719 33.41 1.59 1.09-0.38 3.36-1.97 2.28-8.07-5.48-15.456-11.89-21.964-19.15-10.629-11.87-18.715-25.92-23.559-41.08-8.015-3.94-16.304-7.26-24.832-9.91-3.238 1.4-6.367 3-9.39 4.82-1.653 0.99-3.364-1.48-1.703-2.49 2.293-1.38 4.648-2.63 7.058-3.79-2.66-1.25-5.324-2.51-7.984-3.76-1.754-0.83-0.469-3.55 1.285-2.72 2.066 0.97 4.133 1.94 6.199 2.92-2.445-4.18-4.894-8.35-7.34-12.53-0.972-1.66 1.504-3.38 2.485-1.7 3.152 5.38 6.3 10.76 9.453 16.14 8.086 2.49 15.965 5.52 23.609 9.12-0.187-0.67-0.379-1.33-0.555-2.01-2.429-9.37-3.605-18.96-3.722-28.57-1.477-2.19-3.09-4.27-4.824-6.23-0.407-0.14-0.739-0.44-0.844-0.94-3.348-3.63-7.133-6.84-11.317-9.54-1.609-1.04-0.339-3.77 1.286-2.72 3.57 2.31 6.871 4.92 9.882 7.83-0.093-3.51-0.187-7.02-0.281-10.53-0.051-1.93 2.949-2.2 3-0.26 0.125 4.67 0.25 9.34 0.371 14.01 0.957 1.06 1.879 2.17 2.762 3.3 0.254-9.5 1.512-18.98 3.641-28.28 0.429-1.89 3.394-1.37 2.964 0.51"
				style="fill: rgb(207, 135, 34);"
			/></g
		>
		<g id="__id22_smkgcj1r0q"
			><path
				d="m271.52 96.75c2.87 2.609 7.32 2.395 9.92-0.477 2.61-2.871 2.4-7.312-0.48-9.918-2.87-2.609-7.31-2.394-9.91 0.477-2.61 2.871-2.4 7.313 0.47 9.918zm16.33-1.227c2.87 2.61 7.31 2.395 9.92-0.476 2.6-2.871 2.39-7.313-0.48-9.918-2.88-2.609-7.31-2.395-9.92 0.476-2.61 2.872-2.39 7.313 0.48 9.918zm-30.12-7.628c2.87 2.605 7.31 2.39 9.92-0.481 2.61-2.867 2.39-7.309-0.48-9.918-2.87-2.605-7.31-2.394-9.92 0.477-2.61 2.875-2.39 7.312 0.48 9.922zm-21.22 1.835c2.87 2.61 7.31 2.395 9.92-0.476s2.39-7.313-0.48-9.918c-2.87-2.609-7.31-2.395-9.92 0.476-2.6 2.872-2.39 7.313 0.48 9.918zm-16.28-7.117c2.87 2.61 7.31 2.395 9.92-0.476s2.39-7.313-0.48-9.918c-2.87-2.61-7.31-2.395-9.92 0.476-2.6 2.871-2.39 7.313 0.48 9.918zm-14.89-4.039c2.87 2.606 7.31 2.395 9.92-0.476 2.6-2.871 2.39-7.313-0.48-9.922-2.87-2.606-7.31-2.391-9.92 0.48-2.61 2.867-2.39 7.309 0.48 9.918zm5.71-17.894c2.88 2.605 7.32 2.394 9.93-0.477 2.6-2.871 2.39-7.312-0.48-9.918-2.88-2.609-7.31-2.394-9.92 0.477s-2.4 7.312 0.47 9.918zm-0.67-15.785c2.87 2.609 7.31 2.394 9.92-0.477s2.39-7.313-0.48-9.922c-2.87-2.605-7.31-2.391-9.92 0.481-2.6 2.871-2.39 7.312 0.48 9.918zm16.05-14.204c2.87 2.61 7.31 2.395 9.91-0.476 2.61-2.871 2.4-7.313-0.47-9.918-2.87-2.609-7.32-2.395-9.92 0.476-2.61 2.872-2.4 7.313 0.48 9.918zm11.87-13.082c2.88 2.61 7.32 2.395 9.92-0.476 2.61-2.871 2.4-7.3127-0.47-9.9182-2.87-2.6093-7.32-2.3945-9.92 0.4766-2.61 2.8706-2.4 7.3126 0.47 9.9176zm15.16-0.621c2.88 2.61 7.32 2.395 9.93-0.476 2.6-2.871 2.39-7.3128-0.48-9.9182-2.87-2.6094-7.32-2.3946-9.92 0.4765-2.61 2.8711-2.4 7.3127 0.47 9.9177zm106.59 306.96c3.88-0.03 7-3.19 6.98-7.07s-3.19-7-7.06-6.98c-3.88 0.03-7.01 3.19-6.98 7.06 0.02 3.88 3.19 7.01 7.06 6.99zm11.81-11.34c3.88-0.02 7.01-3.18 6.98-7.06-0.02-3.88-3.18-7-7.06-6.98s-7 3.19-6.98 7.06c0.02 3.88 3.19 7.01 7.06 6.98zm-14.42 27.51c3.87-0.02 7-3.18 6.97-7.06-0.02-3.88-3.18-7-7.06-6.98-3.88 0.03-7 3.19-6.98 7.07 0.02 3.87 3.19 7 7.07 6.97zm-15.54 14.58c3.88-0.03 7-3.19 6.98-7.07-0.03-3.88-3.19-7-7.07-6.98-3.88 0.03-7 3.19-6.97 7.07 0.02 3.88 3.18 7 7.06 6.98zm-5.57 16.87c3.88-0.03 7-3.19 6.98-7.07-0.03-3.88-3.19-7-7.07-6.98-3.88 0.03-7 3.19-6.98 7.07 0.03 3.87 3.19 7 7.07 6.98zm-6.94 13.78c3.88-0.02 7-3.19 6.98-7.06-0.02-3.88-3.19-7-7.07-6.98-3.87 0.02-7 3.18-6.98 7.06 0.03 3.88 3.19 7.01 7.07 6.98zm17.14 7.69c3.88-0.02 7-3.18 6.98-7.06-0.03-3.88-3.19-7-7.07-6.98s-7 3.18-6.98 7.06c0.03 3.88 3.19 7.01 7.07 6.98zm11.3 11.05c3.88-0.03 7-3.19 6.98-7.07-0.03-3.88-3.19-7-7.07-6.98-3.88 0.03-7 3.19-6.97 7.07 0.02 3.87 3.18 7 7.06 6.98zm21.28-2.47c3.88-0.02 7.01-3.18 6.98-7.06-0.02-3.88-3.18-7-7.06-6.98-3.88 0.03-7 3.19-6.98 7.06 0.02 3.88 3.18 7.01 7.06 6.98zm17.68-0.1c3.87-0.03 7-3.19 6.97-7.07-0.02-3.88-3.19-7-7.06-6.98-3.88 0.03-7 3.19-6.98 7.07 0.02 3.87 3.19 7 7.07 6.98zm10.58-10.88c3.88-0.02 7-3.18 6.98-7.06-0.03-3.88-3.19-7-7.06-6.98-3.88 0.02-7.01 3.19-6.99 7.07 0.03 3.88 3.19 7 7.07 6.97zm-311.14-134.16c-1.653 3.51-0.153 7.69 3.355 9.35 3.508 1.65 7.688 0.15 9.348-3.36 1.65-3.51 0.15-7.69-3.36-9.35-3.5-1.65-7.687-0.15-9.343 3.36zm5.113 15.55c-1.652 3.51-0.15 7.69 3.36 9.35 3.5 1.65 7.69 0.15 9.34-3.36 1.66-3.5 0.16-7.69-3.35-9.34-3.51-1.66-7.69-0.16-9.35 3.35zm-18.574-24.9c-1.657 3.51-0.153 7.69 3.355 9.35 3.508 1.65 7.691 0.15 9.344-3.36 1.656-3.51 0.152-7.69-3.356-9.35-3.507-1.65-7.691-0.15-9.343 3.36zm-6.426-20.31c-1.656 3.51-0.152 7.69 3.355 9.35 3.508 1.65 7.692 0.15 9.344-3.36 1.656-3.51 0.152-7.69-3.355-9.35-3.508-1.65-7.692-0.15-9.344 3.36zm-12.809-12.31c-1.652 3.51-0.152 7.69 3.356 9.35 3.508 1.65 7.691 0.15 9.347-3.36 1.657-3.51 0.153-7.69-3.355-9.35-3.508-1.65-7.691-0.15-9.348 3.36zm-9.433-12.21c-1.653 3.5-0.149 7.69 3.355 9.34 3.508 1.66 7.695 0.15 9.348-3.35 1.656-3.51 0.152-7.7-3.356-9.35-3.507-1.65-7.691-0.15-9.347 3.36zm-14.34 12.13c-1.656 3.5-0.153 7.69 3.355 9.34 3.508 1.66 7.692 0.16 9.348-3.35 1.652-3.51 0.148-7.69-3.359-9.35-3.504-1.65-7.692-0.15-9.344 3.36zm-14.844 5.41c-1.652 3.51-0.148 7.7 3.356 9.35 3.507 1.66 7.695 0.15 9.347-3.35 1.656-3.51 0.153-7.7-3.355-9.35s-7.692-0.15-9.348 3.35zm-6.976 20.27c-1.657 3.5-0.153 7.69 3.355 9.34 3.504 1.66 7.691 0.15 9.344-3.36 1.656-3.5 0.152-7.69-3.356-9.34-3.508-1.66-7.691-0.15-9.343 3.36zm-7.54 15.98c-1.6558 3.5-0.152 7.69 3.356 9.34 3.508 1.66 7.691 0.16 9.344-3.35 1.656-3.51 0.156-7.69-3.352-9.35-3.508-1.65-7.695-0.15-9.348 3.36zm14.575 10.89c3.507 1.65 5.011 5.83 3.355 9.34-1.652 3.51-5.84 5.01-9.348 3.36-3.503-1.66-5.007-5.84-3.351-9.35 1.652-3.51 5.836-5.01 9.344-3.35"
				style="fill: rgb(255, 165, 0);"
			/></g
		>
		<g clip-path="url(#__id15_smkgcj1r0q)" id="__id23_smkgcj1r0q">
			<path
				d="m191.82 361.37c-1.26-0.58-2.59-0.58-3.88-0.09-1.64 0.62-3.06 1.77-4.9 1.59-1.76-0.17-3.31-1.17-5.04-1.49-1.44-0.27-2.9 0-4.23 0.62-3.79 1.77-5.87 5.92-8.29 9.12-1.52 1.99-3.12 3.92-4.79 5.79-0.4 0.44-0.82 0.87-1.23 1.3 1.25-2.94 1.96-6.09 2.28-9.29 0.24-2.44 0.29-4.89 0.25-7.34-0.03-2.17-0.12-4.4-0.88-6.46-1.11-3.04-4.58-6-7.97-4.45-1.02 0.47-1.77 1.42-2.9 1.63-1.03 0.2-2.1-0.23-3.08-0.5-1.77-0.49-3.37-0.38-4.87 0.75-1.24 0.92-2.06 2.19-2.82 3.49 0.02-0.2 0.03-0.42 0.03-0.63-0.11-3.01-3.7-5-6.04-6.22-3.1-1.63-6.5-2.68-9.84-3.69-7.2-2.19-14.58-3.79-22.05-4.77-0.16-0.02-0.31-0.04-0.47-0.06 1.67 0.06 3.33 0.12 4.99 0.15 3.7 0.07 7.4 0.08 11.1 0.01 6.93-0.13 14.08-0.45 20.62-2.99 2.79-1.08 5.78-2.52 7.74-4.85 1.8-2.13 2.19-4.79 1.77-7.49-0.48-3.1-1.71-6.12-3.44-8.73-0.84-1.27-1.81-2.44-2.87-3.52-1.26-1.29-2.71-2.48-3.62-4.07-1.64-2.89-0.8-6.35-1.63-9.46-0.64-2.42-2.24-4.47-4.24-5.93-4.56-3.33-10.34-3.54-15.58-1.93-3.37 1.04-6.49 2.71-9.51 4.48-0.69 0.41-1.36 0.82-2.05 1.22-0.62 0.37-1 0.78-1.78 0.3-0.27-0.17-0.53-0.57-0.74-0.81-0.97-1.1-1.926-2.23-3.102-3.12-4.649-3.52-9.926 0.11-12.289 4.53-3.18 5.94-2.133 12.97 0.172 19.01 2.554 6.7 6.605 12.87 8.32 19.85-2.266-4.27-4.57-8.51-6.973-12.7-2.793-4.87-5.91-9.4-10.492-12.76-3.988-2.92-8.703-5.13-13.492-6.38-2.344-0.62-4.914-0.81-7.109 0.38-0.833 0.45-1.563 1.09-2.075 1.88-0.746 1.16-0.992 2.57-1.89 3.63-1.742 2.06-4.707 2.64-7.055 3.73-2.129 0.99-4.16 2.24-5.824 3.9-2.996 3.02-4.414 7.59-2.535 11.59 0.867 1.84 2.359 3.11 4.265 3.79 2.43 0.86 5.121 0.93 7.02 2.89 1.808 1.85 2.594 4.46 4.226 6.46 1.368 1.67 3.262 2.76 5.336 3.32 5.949 1.63 12.231-1.04 17.989-2.32 3.601-0.8 7.23-1.44 10.882-1.94 0.871-0.12 1.75-0.2 2.625-0.3-4.199 2.12-7.992 4.97-11.406 8.27-2.594 2.5-4.98 5.2-7.269 7.98-2.028 2.47-4.051 5.06-5.168 8.09-1.649 4.47-0.563 11.1 4.718 12.58 1.578 0.45 3.325 0.1 4.797 0.93 1.348 0.77 2.145 2.26 2.989 3.5 1.515 2.23 3.406 3.63 6.171 3.8 3.418 0.22 6.504-1.36 9.688-2.32 2.07-0.62 4.453-1.17 6.321 0.26 1.15 0.88 2.02 2.07 3.29 2.81 2.36 1.39 5.26 1.08 7.8 0.41 3.26-0.86 6.55-2.15 9.59-3.62 1.44-0.7 2.85-1.51 4.15-2.46 1.09 1.45 2.2 2.96 2.15 4.85-0.06 1.86-1.08 4.17 0.38 5.78 1.38 1.51 4.12 0.96 5.86 0.57 2.32-0.53 4.55-1.47 6.72-2.42 4.7-2.03 9.23-4.45 13.53-7.22 0.1-0.07 0.2-0.14 0.29-0.2-0.89 0.71-1.79 1.42-2.67 2.13-1.95 1.59-3.87 3.22-5.76 4.88-3.53 3.12-7.1 6.43-9.37 10.62-0.97 1.78-1.89 3.84-1.88 5.91 0.01 1.9 0.97 3.45 2.37 4.67 1.62 1.39 3.58 2.41 5.63 3.01 0.99 0.29 2.01 0.47 3.03 0.56 1.23 0.11 2.5 0.09 3.67 0.51 2.12 0.78 3.21 2.94 5 4.19 1.4 0.97 3.13 1.33 4.81 1.21 3.82-0.28 6.92-2.72 8.92-5.85 1.29-2.02 2.17-4.26 2.96-6.51 0.18-0.51 0.34-1.02 0.52-1.53 0.17-0.46 0.18-0.84 0.79-0.93 0.22-0.04 0.53 0.06 0.74 0.09 0.99 0.14 1.98 0.31 2.98 0.25 3.96-0.22 5.1-4.42 4.38-7.75-0.97-4.47-4.6-7.66-8.45-9.77-4.27-2.35-9.08-3.77-13.03-6.63 3.04 1.21 6.1 2.4 9.19 3.51 3.59 1.3 7.19 2.28 11.04 2 3.36-0.24 6.77-1.17 9.81-2.62 1.48-0.71 2.9-1.74 3.51-3.33 0.23-0.6 0.33-1.25 0.25-1.89-0.12-0.92-0.62-1.76-0.62-2.71 0-1.83 1.28-3.44 2.02-5.03 0.66-1.45 1.17-2.99 1.3-4.59 0.23-2.87-1.05-5.86-3.78-7.11zm-90.7-299.48c2.03 0.707 4.28 0.753 5.88 2.378 1.52 1.547 2.18 3.715 3.56 5.379 1.15 1.395 2.74 2.289 4.47 2.754 4.97 1.328 10.21-0.929 15.01-2.023 3.01-0.684 6.03-1.242 9.08-1.672 0.73-0.106 1.46-0.18 2.19-0.266-3.49 1.785-6.65 4.192-9.49 6.957-2.15 2.102-4.13 4.375-6.03 6.707-1.68 2.071-3.36 4.243-4.27 6.778-1.36 3.742-0.42 9.269 4 10.488 1.32 0.363 2.77 0.066 4 0.755 1.13 0.63 1.8 1.87 2.52 2.9 1.27 1.86 2.86 3.02 5.17 3.15 2.85 0.16 5.42-1.16 8.08-1.98 1.73-0.54 3.71-1 5.28 0.18 0.97 0.73 1.7 1.73 2.76 2.34 1.98 1.15 4.4 0.87 6.51 0.3 2.73-0.73 5.46-1.82 8-3.07 2.5-1.22 4.86-2.83 6.55-5.075 1.48-1.945 2.17-4.117 2.35-6.531 0.21-2.602 0.03-5.512 1.89-7.594 1.53-1.711 4.31-3.078 4.2-5.75-0.1-2.512-3.11-4.152-5.06-5.164-2.61-1.344-5.45-2.207-8.24-3.039-6.03-1.789-12.21-3.086-18.44-3.879-0.15-0.02-0.29-0.027-0.44-0.047 1.4 0.047 2.81 0.086 4.21 0.106 3.09 0.043 6.18 0.031 9.27-0.047 5.79-0.141 11.76-0.446 17.21-2.59 2.32-0.914 4.82-2.137 6.44-4.09 1.49-1.785 1.81-4.012 1.45-6.262-0.42-2.59-1.46-5.101-2.92-7.281-0.7-1.051-1.52-2.023-2.41-2.922-1.06-1.07-2.28-2.055-3.04-3.379-1.39-2.406-0.7-5.301-1.41-7.894-0.54-2.016-1.89-3.731-3.57-4.942-3.82-2.75-8.66-2.906-13.02-1.531-2.81 0.879-5.41 2.297-7.93 3.789-0.57 0.336-1.13 0.692-1.7 1.027-0.52 0.301-0.84 0.657-1.48 0.254-0.23-0.14-0.45-0.472-0.62-0.671-0.82-0.911-1.63-1.852-2.61-2.59-3.9-2.922-8.29 0.14-10.24 3.836-2.63 4.98-1.73 10.847 0.23 15.878 2.17 5.583 5.58 10.719 7.04 16.54-1.91-3.551-3.86-7.082-5.88-10.571-2.36-4.058-4.98-7.824-8.82-10.605-3.35-2.426-7.3-4.25-11.3-5.274-1.96-0.5-4.11-0.648-5.94 0.356-0.7 0.383-1.3 0.914-1.72 1.582-0.62 0.965-0.82 2.144-1.57 3.039-1.44 1.726-3.91 2.226-5.87 3.148-1.77 0.832-3.47 1.883-4.845 3.285-2.492 2.532-3.652 6.352-2.066 9.684 0.734 1.539 1.984 2.59 3.581 3.149zm385.16 173.16c-0.13 2.7-1.05 5.39-2.87 7.42-2.33 2.61-5.98 3.92-7.63 7.15-0.91 1.78-1.12 3.81-1.53 5.74-0.35 1.61-0.84 3.19-1.49 4.71-1.35 3.14-3.35 6.08-5.89 8.38-2.2 2-4.86 3.23-7.88 2.87-3.3-0.39-6.4-2.25-9.06-4.14-6.22-4.43-10.8-10.75-15.07-16.99-2.29-3.32-4.5-6.7-6.65-10.11-0.97-1.53-1.91-3.08-2.85-4.63 0.07 0.16 0.15 0.31 0.23 0.46 3.57 7.39 6.54 15.07 8.87 22.94 1.08 3.65 2.16 7.38 2.54 11.18 0.28 2.85 0.63 7.31-2.05 9.21-2.85 2.02-6.32-0.05-9.28-0.51-3.6-0.55-6.66 1.71-9.65 3.34-2.78 1.52-5.64 2.31-8.82 2.08-3.66-0.27-7.1-1.7-10.22-3.56-3.16-1.89-6.3-4.11-9.05-6.57-2.13-1.91-4.14-4.36-4.3-7.34-0.08-1.6 0.48-3.11 0.59-4.68 0.18-2.55-1.74-4.4-3.55-5.91-2.78-2.33-6.06-4.19-7.92-7.43-1.5-2.62-1.36-5.18-0.23-7.9 0.62-1.51 1.5-3.13 1.38-4.82-0.12-1.83-1.48-3.22-2.02-4.92-1.81-5.7 3.57-10.66 8.63-11.84 3.43-0.8 7-0.51 10.46-0.14 3.9 0.41 7.8 0.96 11.63 1.83 5.04 1.13 9.92 2.88 14.36 5.43-0.61-0.73-1.21-1.48-1.84-2.21-2.64-3.03-5.41-5.95-8.29-8.74-4.62-4.48-10.81-8.6-12.9-14.99-0.73-2.23-0.88-4.61-0.17-6.86 0.84-2.68 2.74-4.95 3.35-7.71 0.65-2.91-0.9-5.4-1.57-8.13-0.53-2.14-0.27-4.26 0.89-6.16 2.52-4.11 7.53-5.55 12.07-4.62 2.52 0.51 4.87 1.61 7.04 2.96 2.4 1.48 4.71 3.83 7.62 4.18 1.52 0.19 2.95-0.43 4.44-0.45 1.04-0.01 2.05 0.27 2.96 0.76 2.4 1.29 3.76 3.74 4.61 6.24 1.73 5.12 2.54 10.73 2.27 16.12-0.31 6.19-2.56 11.74-5.33 17.2-2.37 4.7-4.85 9.34-7.38 13.96 5.33-5.75 8.52-13.13 13.09-19.47 4.11-5.72 9.89-10.89 17.21-11.56 5.43-0.49 11.91 2.14 11.49 8.48-0.11 1.61-0.57 3.16-0.98 4.7-0.1 0.34-0.31 0.8-0.3 1.15 0.02 1 0.64 1.1 1.33 1.45 0.78 0.38 1.56 0.75 2.34 1.13 3.42 1.69 6.82 3.54 9.79 5.97 4.6 3.81 7.87 9.21 7.58 15.35"
				style="fill: rgb(206, 183, 69);"
			/>
		</g>
		<g id="__id24_smkgcj1r0q"
			><path
				d="m165.27 378.4c0.01 0 0.03 0.01 0.05 0.01 0.09 0.04 0.22-0.01 0.28-0.1 1.41-0.63 2.67-1.55 3.67-2.75 0.49-0.58 0.91-1.22 1.25-1.9 0.21-0.42 0.52-0.9 0.21-1.34-0.65-0.91-1.87 0.1-2.33 0.67-1.19 1.5-2.13 3.28-3.15 4.91-0.03 0.01-0.05 0.03-0.07 0.05-0.12 0.07-0.12 0.2-0.07 0.3 0.03 0.06 0.08 0.12 0.16 0.15zm-5.15 2.61c0.03 0.03 0.06 0.05 0.09 0.06 2.4 1.45 5.31 1.47 8.03 1.61 3.08 0.16 6.16 0.2 9.24 0.13 0.19 0 0.33-0.2 0.23-0.37-1.38-2.54-4.69-0.01-6.52-1.44 0.79-0.86 1.97-1.35 2.87-2.09 0.87-0.73 1.64-1.58 2.27-2.51 1.06-1.55 1.92-3.49 1.3-5.37-0.05-0.15-0.21-0.25-0.36-0.17-1.42 0.76-2.43 1.96-3.51 3.11-1.24 1.32-2.62 2.51-4.11 3.53-2.63 1.79-6.09 3.74-9.38 2.97-0.24-0.06-0.43 0.23-0.25 0.42 0.02 0.02 0.04 0.05 0.06 0.07 0.01 0.02 0.03 0.04 0.04 0.05zm-20.05 1.83c2.13 0.87 4.82 0.98 7.08 0.88 2.67-0.12 5.29-0.74 7.74-1.79 0.87-0.33 1.31-1.12 1.8-1.9 0.64-1.03 1.15-2.16 1.51-3.33 0.69-2.3 0.9-5.01 0.19-7.34-0.25-0.8-0.81-1.6-1.75-1.47-0.78 0.11-1.36 0.82-1.66 1.51-0.31 0.71-0.4 1.49-0.86 2.12-0.49 0.68-1.3 0.89-2.11 0.89-1.35-0.01-2.68-0.57-3.88-1.15-2.31-1.12-4.59-2.66-7.27-2.42-0.17 0.02-0.29 0.14-0.26 0.32 0.46 2.36 2.79 3.43 3.94 5.37 0.7 1.18 0.82 2.6-0.32 3.56-0.91 0.76-2.17 1.01-3.26 1.42-0.81 0.31-1.86 0.76-2.03 1.72-0.15 0.8 0.46 1.34 1.14 1.61zm19.2 26.14c1.21-1.83 1.75-4.33 2.09-6.47 0.38-2.35 0.44-4.73 0.37-7.1 1.93 1.27 4.16 2.49 6.54 1.89 0.18-0.05 0.26-0.28 0.12-0.42-3.73-4.07-7.32-8.27-10.77-12.58-0.07-0.09-0.16-0.1-0.24-0.07-0.08 0.01-0.16 0.07-0.18 0.18-0.06 0.25-0.02 0.29 0.08 0.54 0.2 0.52 0.35 1.03 0.38 1.59 0.06 0.96-0.17 1.92-0.54 2.8-0.82 2-2.36 3.5-3.93 4.93-1.5 1.37-3.34 2.84-4.21 4.74-0.23 0.51-0.38 1.17 0.06 1.61 0.54 0.54 1.72 0.53 2.41 0.45 0.78-0.09 1.53-0.35 2.19-0.78 0.89-0.58 1.39-1.46 2.07-2.25 0.17-0.18 0.52-0.63 0.76-0.68 0.65-0.12 0.44 0.48 0.43 0.81-0.02 0.54-0.08 1.09-0.12 1.63-0.1 1.31-0.23 2.61-0.38 3.91-0.13 1.19-0.31 2.37-0.46 3.56-0.1 0.78-0.18 1.74 0.32 2.41 0.93 1.26 2.36 0.27 3.01-0.7zm-23.28-345.29c-0.01-0.019-0.02-0.039-0.03-0.054-0.07-0.117-0.22-0.16-0.35-0.129-1.83-0.524-3.74-0.645-5.62-0.309-0.93 0.164-1.83 0.426-2.69 0.801-0.53 0.227-1.19 0.441-1.25 1.102-0.1 1.367 1.84 1.386 2.72 1.203 2.31-0.469 4.6-1.407 6.84-2.137 0.04 0.012 0.08 0.016 0.12 0.016 0.16 0.019 0.26-0.098 0.29-0.239 0.03-0.078 0.02-0.164-0.03-0.254zm6.91 1.598c-0.01-0.047-0.02-0.086-0.04-0.117-1.11-3.258-3.83-5.59-6.29-7.863-2.77-2.579-5.64-5.047-8.59-7.422-0.18-0.145-0.46-0.075-0.52 0.168-0.7 3.476 4.41 3.711 5.02 6.504-1.43 0.191-2.93-0.286-4.36-0.293-1.39-0.004-2.79 0.187-4.12 0.562-2.22 0.621-4.56 1.777-5.47 4.031-0.08 0.184 0 0.403 0.21 0.45 1.93 0.402 3.83 0.07 5.76-0.161 2.21-0.261 4.45-0.3 6.66-0.078 3.89 0.387 8.69 1.289 11.17 4.61 0.19 0.246 0.58 0.129 0.58-0.188v-0.121c0-0.023 0-0.055-0.01-0.082zm20.33 14.113c-1.32-2.496-3.77-4.722-5.98-6.414-2.61-1.992-5.55-3.48-8.7-4.433-1.08-0.367-2.12 0.019-3.19 0.371-1.43 0.465-2.79 1.129-4.05 1.945-2.47 1.617-4.82 4.008-5.98 6.762-0.4 0.941-0.51 2.144 0.48 2.762 0.83 0.519 1.94 0.3 2.76-0.11 0.84-0.418 1.55-1.082 2.48-1.316 1-0.254 1.93 0.191 2.69 0.832 1.27 1.078 2.08 2.648 2.75 4.14 1.29 2.875 2.22 6.141 4.94 8.024 0.17 0.117 0.38 0.101 0.49-0.094 1.43-2.582 0.08-5.433 0.53-8.172 0.28-1.668 1.28-3.094 3.12-3.094 1.45-0.003 2.84 0.762 4.19 1.235 1 0.351 2.35 0.754 3.27-0.008 0.77-0.637 0.61-1.633 0.2-2.43zm2.57-39.773c-2.6 0.769-5.07 2.691-7.09 4.441-2.21 1.914-4.14 4.106-5.94 6.399-0.82-2.735-1.96-5.637-4.67-6.942-0.21-0.101-0.47 0.055-0.46 0.293 0.3 6.778 0.37 13.559 0.22 20.34-0.01 0.145 0.07 0.231 0.17 0.266 0.08 0.058 0.2 0.066 0.31-0.02 0.25-0.191 0.24-0.261 0.35-0.578 0.21-0.652 0.47-1.242 0.89-1.801 0.71-0.945 1.68-1.668 2.72-2.211 2.36-1.23 4.99-1.425 7.6-1.535 2.5-0.105 5.39-0.035 7.71-1.133 0.62-0.293 1.28-0.8 1.21-1.57-0.08-0.93-1.2-1.851-1.91-2.324-0.8-0.531-1.72-0.879-2.67-0.992-1.31-0.16-2.47 0.277-3.74 0.476-0.29 0.047-0.98 0.192-1.25 0.043-0.7-0.394-0.04-0.797 0.24-1.101 0.45-0.496 0.93-0.969 1.4-1.442 1.13-1.144 2.27-2.269 3.44-3.375 1.07-1.015 2.17-1.988 3.25-2.988 0.71-0.656 1.54-1.5 1.61-2.527 0.11-1.914-2.02-2.121-3.39-1.719zm252.58 177.47c0.01-0.03 0.03-0.05 0.04-0.08 0.08-0.15 0.01-0.36-0.11-0.47-0.73-2.37-1.96-4.55-3.67-6.37-0.83-0.9-1.76-1.7-2.78-2.38-0.63-0.41-1.34-0.99-2.09-0.58-1.58 0.86-0.21 3 0.61 3.84 2.16 2.19 4.81 4.02 7.21 5.96 0.01 0.05 0.03 0.09 0.06 0.13 0.1 0.19 0.3 0.23 0.47 0.16 0.1-0.02 0.2-0.1 0.26-0.21zm3.17 8.69c0.04-0.04 0.08-0.08 0.1-0.12 2.78-3.53 3.39-8.18 4.13-12.48 0.84-4.87 1.51-9.76 2.01-14.68 0.03-0.3-0.26-0.56-0.56-0.45-4.3 1.71-0.92 7.47-3.55 10.11-1.22-1.42-1.77-3.4-2.78-4.97-0.98-1.53-2.19-2.91-3.55-4.11-2.26-1.99-5.19-3.73-8.3-3.12-0.25 0.05-0.44 0.29-0.34 0.55 0.93 2.4 2.65 4.25 4.27 6.19 1.87 2.23 3.5 4.65 4.83 7.24 2.34 4.52 4.77 10.42 2.9 15.5-0.14 0.38 0.27 0.73 0.62 0.5 0.04-0.04 0.08-0.06 0.13-0.09 0.03-0.02 0.06-0.04 0.09-0.07zm-0.99 32.28c1.8-3.21 2.49-7.47 2.77-11.09 0.33-4.28-0.14-8.56-1.34-12.68-0.36-1.44-1.53-2.3-2.67-3.23-1.53-1.23-3.22-2.25-5.01-3.04-3.53-1.56-7.81-2.42-11.66-1.74-1.31 0.23-2.71 0.97-2.68 2.49 0.03 1.28 1.05 2.34 2.09 2.95 1.06 0.62 2.28 0.93 3.2 1.77 0.99 0.91 1.17 2.25 1.01 3.54-0.28 2.15-1.42 4.16-2.58 5.95-2.23 3.46-5.14 6.8-5.26 11.12-0.01 0.27 0.16 0.48 0.44 0.46 3.84-0.27 6.01-3.77 9.33-5.23 2.02-0.88 4.29-0.79 5.6 1.21 1.04 1.59 1.19 3.66 1.63 5.47 0.33 1.34 0.84 3.1 2.34 3.57 1.24 0.39 2.22-0.49 2.79-1.52zm45.36-25.47c-2.69-2.3-6.56-3.64-9.9-4.6-3.67-1.05-7.45-1.62-11.24-1.96 2.41-2.84 4.78-6.14 4.28-10.04-0.04-0.31-0.4-0.47-0.65-0.29-7.2 5.15-14.57 10.05-22.11 14.7-0.16 0.1-0.19 0.24-0.16 0.38 0 0.14 0.07 0.26 0.24 0.33 0.39 0.14 0.46 0.07 0.88-0.03 0.87-0.23 1.7-0.37 2.61-0.31 1.54 0.1 3.02 0.65 4.36 1.41 3.02 1.71 5.1 4.44 7.08 7.22 1.89 2.66 3.87 5.88 6.73 7.63 0.76 0.47 1.78 0.83 2.57 0.21 0.96-0.75 1.18-2.63 1.19-3.75 0.01-1.25-0.26-2.5-0.82-3.62-0.75-1.55-2.05-2.51-3.18-3.76-0.26-0.28-0.91-0.94-0.93-1.33-0.08-1.06 0.83-0.62 1.37-0.53 0.86 0.14 1.72 0.33 2.57 0.51 2.06 0.42 4.1 0.87 6.14 1.36 1.87 0.45 3.73 0.96 5.59 1.44 1.23 0.31 2.73 0.62 3.91-0.05 2.17-1.23 0.88-3.71-0.53-4.92zm-382.4 104.16c-0.012-0.02-0.024-0.04-0.04-0.06-0.074-0.15-0.261-0.2-0.41-0.16-2.191-0.64-4.48-0.79-6.738-0.41-1.105 0.19-2.191 0.5-3.223 0.94-0.632 0.27-1.433 0.53-1.5 1.31-0.136 1.64 2.192 1.67 3.25 1.46 2.766-0.55 5.508-1.65 8.203-2.51 0.043 0.01 0.09 0.02 0.133 0.02 0.196 0.02 0.325-0.12 0.356-0.28 0.035-0.09 0.031-0.2-0.031-0.31zm8.261 1.96c-0.008-0.05-0.019-0.1-0.043-0.14-1.308-3.91-4.558-6.72-7.476-9.46-3.309-3.1-6.727-6.08-10.242-8.94-0.215-0.18-0.559-0.09-0.618 0.2-0.867 4.16 5.254 4.47 5.953 7.82-1.707 0.22-3.5-0.36-5.214-0.38-1.664-0.02-3.336 0.21-4.938 0.64-2.66 0.74-5.473 2.1-6.574 4.79-0.09 0.22 0 0.49 0.254 0.54 2.305 0.5 4.586 0.11 6.898-0.15 2.645-0.3 5.321-0.33 7.969-0.05 4.652 0.49 10.395 1.6 13.348 5.6 0.218 0.29 0.691 0.15 0.687-0.23v-0.14c0.004-0.03 0-0.06-0.004-0.1zm24.239 17.03c-1.55-2.99-4.47-5.68-7.11-7.71-3.11-2.41-6.63-4.21-10.383-5.37-1.293-0.45-2.543 0.01-3.828 0.42-1.707 0.55-3.351 1.33-4.859 2.3-2.973 1.92-5.793 4.77-7.211 8.06-0.481 1.12-0.617 2.57 0.562 3.31 0.993 0.62 2.321 0.37 3.309-0.12 1.012-0.49 1.863-1.28 2.973-1.55 1.199-0.3 2.316 0.24 3.218 1.01 1.512 1.3 2.473 3.19 3.262 4.98 1.52 3.45 2.621 7.36 5.867 9.64 0.2 0.14 0.45 0.12 0.58-0.11 1.72-3.09 0.14-6.51 0.69-9.78 0.34-2 1.56-3.7 3.75-3.69 1.75 0.01 3.41 0.94 5.01 1.51 1.2 0.43 2.81 0.92 3.92 0.01 0.93-0.75 0.75-1.95 0.25-2.91zm7.39-45.52c-0.08 1.23-1.08 2.23-1.93 3.02-1.3 1.19-2.63 2.35-3.92 3.55-1.4 1.32-2.79 2.66-4.14 4.02-0.57 0.57-1.15 1.13-1.69 1.72-0.34 0.36-1.13 0.84-0.28 1.32 0.31 0.17 1.14 0.01 1.49-0.05 1.52-0.23 2.91-0.74 4.47-0.54 1.14 0.14 2.25 0.56 3.2 1.2 0.84 0.57 2.18 1.68 2.27 2.8 0.08 0.92-0.72 1.52-1.46 1.87-2.78 1.3-6.24 1.2-9.24 1.31-3.13 0.11-6.27 0.33-9.11 1.78-1.25 0.65-2.41 1.5-3.269 2.63-0.504 0.67-0.821 1.37-1.086 2.15-0.125 0.38-0.113 0.46-0.418 0.69-0.133 0.1-0.27 0.09-0.375 0.02-0.117-0.04-0.211-0.15-0.203-0.32 0.23-8.11 0.191-16.24-0.117-24.35-0.012-0.29 0.293-0.47 0.546-0.35 3.242 1.58 4.582 5.07 5.542 8.34 2.17-2.73 4.51-5.34 7.16-7.62 2.42-2.08 5.41-4.37 8.53-5.26 1.64-0.48 4.19-0.22 4.03 2.07"
				style="fill: rgb(207, 135, 34);"
			/></g
		>
	</g>
</svg>
